  0
SECTION
  2
HEADER
  9
$ACADVER
  1
AC1006
  9
$EXTMIN
 10
0.000000
 20
0.000000
 30
0.000000
  9
$EXTMAX
 10
553.000000
 20
75.000000
 30
0.000000
  0
ENDSEC
  0
SECTION
  2
ENTITIES
  0
POLYLINE
  8
0
 66
1
 70
1
  0
VERTEX
  8
0
 10
260.212567
 20
62.493393
 42
0.105158
  0
VERTEX
  8
0
 10
257.371820
 20
60.467852
 42
0.086337
  0
VERTEX
  8
0
 10
255.358141
 20
57.323368
 42
0.072681
  0
VERTEX
  8
0
 10
254.290437
 20
53.180503
 42
0.047502
  0
VERTEX
  8
0
 10
254.230166
 20
48.238041
 42
0.049958
  0
VERTEX
  8
0
 10
255.068045
 20
43.699819
 42
0.094843
  0
VERTEX
  8
0
 10
256.749602
 20
40.401902
 42
0.090761
  0
VERTEX
  8
0
 10
259.587231
 20
37.866924
 42
0.042790
  0
VERTEX
  8
0
 10
264.000000
 20
35.666478
 42
-0.015882
  0
VERTEX
  8
0
 10
267.105443
 20
34.321173
 42
-0.074323
  0
VERTEX
  8
0
 10
268.720916
 20
33.242007
 42
-0.102738
  0
VERTEX
  8
0
 10
269.686283
 20
31.914435
 42
-0.045367
  0
VERTEX
  8
0
 10
270.399379
 20
29.854743
 42
-0.039198
  0
VERTEX
  8
0
 10
270.894061
 20
26.870517
 42
-0.105017
  0
VERTEX
  8
0
 10
270.630384
 20
24.743767
 42
-0.166471
  0
VERTEX
  8
0
 10
269.644320
 20
23.479866
 42
-0.145602
  0
VERTEX
  8
0
 10
268.031385
 20
23.000000
 42
-0.084555
  0
VERTEX
  8
0
 10
267.007050
 20
23.174473
 42
-0.178742
  0
VERTEX
  8
0
 10
266.395099
 20
23.680741
 42
-0.109504
  0
VERTEX
  8
0
 10
266.082263
 20
24.665004
 42
-0.022404
  0
VERTEX
  8
0
 10
266.000000
 20
26.500000
 42
0.000000
  0
VERTEX
  8
0
 10
266.000000
 20
30.000000
 42
0.000000
  0
VERTEX
  8
0
 10
260.000000
 20
30.000000
 42
0.008455
  0
VERTEX
  8
0
 10
256.528387
 20
29.941290
 42
0.072107
  0
VERTEX
  8
0
 10
255.000000
 20
29.666667
 42
0.188641
  0
VERTEX
  8
0
 10
254.272668
 20
29.060666
 42
0.126480
  0
VERTEX
  8
0
 10
254.000000
 20
28.000000
 42
0.077099
  0
VERTEX
  8
0
 10
254.147014
 20
27.052259
 42
0.154650
  0
VERTEX
  8
0
 10
254.579357
 20
26.439763
 42
0.122745
  0
VERTEX
  8
0
 10
255.366958
 20
26.102117
 42
0.040205
  0
VERTEX
  8
0
 10
256.634859
 20
26.000000
 42
0.000000
  0
VERTEX
  8
0
 10
259.269717
 20
26.000000
 42
0.000000
  0
VERTEX
  8
0
 10
256.560160
 20
23.868661
 42
0.000000
  0
VERTEX
  8
0
 10
253.850602
 20
21.737323
 42
0.000000
  0
VERTEX
  8
0
 10
257.628249
 20
17.868661
 42
0.020440
  0
VERTEX
  8
0
 10
260.006323
 20
15.624539
 42
0.082482
  0
VERTEX
  8
0
 10
261.700656
 20
14.583495
 42
0.078960
  0
VERTEX
  8
0
 10
263.677357
 20
14.123215
 42
0.017798
  0
VERTEX
  8
0
 10
267.137848
 20
14.000000
 42
0.049404
  0
VERTEX
  8
0
 10
274.273270
 20
14.706757
 42
0.150172
  0
VERTEX
  8
0
 10
278.513510
 20
16.998885
 42
0.149118
  0
VERTEX
  8
0
 10
280.752429
 20
21.288404
 42
0.048484
  0
VERTEX
  8
0
 10
281.388498
 20
28.488904
 42
0.037895
  0
VERTEX
  8
0
 10
280.779527
 20
35.675281
 42
0.136033
  0
VERTEX
  8
0
 10
278.874994
 20
39.820373
 42
0.132890
  0
VERTEX
  8
0
 10
275.079179
 20
42.447761
 42
0.035489
  0
VERTEX
  8
0
 10
267.933421
 20
44.427549
 42
-0.070834
  0
VERTEX
  8
0
 10
266.851538
 20
44.811180
 42
-0.044721
  0
VERTEX
  8
0
 10
265.722938
 20
45.537092
 42
-0.044101
  0
VERTEX
  8
0
 10
264.719833
 20
46.469909
 42
-0.060611
  0
VERTEX
  8
0
 10
264.012505
 20
47.476634
 42
-0.035161
  0
VERTEX
  8
0
 10
263.334837
 20
48.989633
 42
-0.137209
  0
VERTEX
  8
0
 10
263.255637
 20
50.001709
 42
-0.117682
  0
VERTEX
  8
0
 10
263.709562
 20
50.994337
 42
-0.022753
  0
VERTEX
  8
0
 10
265.003398
 20
52.503617
 42
-0.053266
  0
VERTEX
  8
0
 10
267.320957
 20
54.496334
 42
-0.173596
  0
VERTEX
  8
0
 10
269.247586
 20
55.008814
 42
-0.267509
  0
VERTEX
  8
0
 10
270.523507
 20
54.123559
 42
-0.110814
  0
VERTEX
  8
0
 10
271.000000
 20
52.000000
 42
0.041432
  0
VERTEX
  8
0
 10
271.152071
 20
50.167950
 42
0.230406
  0
VERTEX
  8
0
 10
271.708333
 20
49.386364
 42
0.117370
  0
VERTEX
  8
0
 10
272.917511
 20
49.057336
 42
0.008002
  0
VERTEX
  8
0
 10
276.500000
 20
49.000000
 42
0.008501
  0
VERTEX
  8
0
 10
279.930581
 20
49.058332
 42
0.101196
  0
VERTEX
  8
0
 10
281.215382
 20
49.366906
 42
0.224078
  0
VERTEX
  8
0
 10
281.812073
 20
50.086187
 42
0.062992
  0
VERTEX
  8
0
 10
282.000000
 20
51.571930
 42
0.097424
  0
VERTEX
  8
0
 10
281.316195
 20
55.048035
 42
0.053961
  0
VERTEX
  8
0
 10
279.249391
 20
58.864898
 42
0.054791
  0
VERTEX
  8
0
 10
276.523524
 20
62.013390
 42
0.138462
  0
VERTEX
  8
0
 10
273.850343
 20
63.379931
 42
0.031868
  0
VERTEX
  8
0
 10
270.160243
 20
63.876189
 42
0.033733
  0
VERTEX
  8
0
 10
266.507136
 20
63.885419
 42
0.035772
  0
VERTEX
  8
0
 10
263.115674
 20
63.419838
 42
0.050526
  0
SEQEND
  0
POLYLINE
  8
0
 66
1
 70
1
  0
VERTEX
  8
0
 10
518.000000
 20
58.000000
 42
0.012031
  0
VERTEX
  8
0
 10
518.095485
 20
54.032258
 42
0.127485
  0
VERTEX
  8
0
 10
518.572356
 20
52.500026
 42
0.382104
  0
VERTEX
  8
0
 10
519.458681
 20
52.239873
 42
0.076028
  0
VERTEX
  8
0
 10
520.947179
 20
53.250000
 42
-0.010716
  0
VERTEX
  8
0
 10
521.685649
 20
53.906318
 42
-0.338283
  0
VERTEX
  8
0
 10
521.913777
 20
53.918361
 42
-0.328028
  0
VERTEX
  8
0
 10
521.990571
 20
53.699320
 42
-0.010405
  0
VERTEX
  8
0
 10
521.678563
 20
52.750000
 42
0.059126
  0
VERTEX
  8
0
 10
521.493561
 20
51.923607
 42
0.192374
  0
VERTEX
  8
0
 10
521.644684
 20
51.394036
 42
0.179484
  0
VERTEX
  8
0
 10
522.129870
 20
51.091519
 42
0.050628
  0
VERTEX
  8
0
 10
523.031385
 20
51.000000
 42
-0.262940
  0
VERTEX
  8
0
 10
524.297183
 20
50.284903
 42
-0.115431
  0
VERTEX
  8
0
 10
524.909415
 20
48.389779
 42
-0.021512
  0
VERTEX
  8
0
 10
525.086215
 20
43.928627
 42
-0.000809
  0
VERTEX
  8
0
 10
525.002153
 20
27.203252
 42
0.000000
  0
VERTEX
  8
0
 10
524.907157
 20
12.906504
 42
0.000000
  0
VERTEX
  8
0
 10
531.703579
 20
13.203252
 42
0.000000
  0
VERTEX
  8
0
 10
538.500000
 20
13.500000
 42
0.000000
  0
VERTEX
  8
0
 10
538.500000
 20
28.500000
 42
0.000000
  0
VERTEX
  8
0
 10
538.500000
 20
43.500000
 42
0.000000
  0
VERTEX
  8
0
 10
535.500000
 20
43.182120
 42
-0.062800
  0
VERTEX
  8
0
 10
533.769732
 20
43.216504
 42
-0.512156
  0
VERTEX
  8
0
 10
533.461690
 20
43.809875
 42
-0.194752
  0
VERTEX
  8
0
 10
534.374774
 20
44.607969
 42
-0.039431
  0
VERTEX
  8
0
 10
536.500000
 20
45.161486
 42
0.091909
  0
VERTEX
  8
0
 10
537.386241
 20
45.494333
 42
0.096810
  0
VERTEX
  8
0
 10
538.075727
 20
46.118348
 42
0.082884
  0
VERTEX
  8
0
 10
538.553306
 20
47.042923
 42
0.049161
  0
VERTEX
  8
0
 10
538.816422
 20
48.258551
 42
-0.042219
  0
VERTEX
  8
0
 10
539.108005
 20
49.702155
 42
-0.147656
  0
VERTEX
  8
0
 10
539.620287
 20
50.489408
 42
-0.139743
  0
VERTEX
  8
0
 10
540.501310
 20
50.886058
 42
-0.036352
  0
VERTEX
  8
0
 10
542.066422
 20
51.000000
 42
0.000000
  0
VERTEX
  8
0
 10
545.000000
 20
51.000000
 42
0.000000
  0
VERTEX
  8
0
 10
545.000000
 20
57.500000
 42
0.000000
  0
VERTEX
  8
0
 10
545.000000
 20
64.000000
 42
0.000000
  0
VERTEX
  8
0
 10
538.049690
 20
64.000000
 42
0.010244
  0
VERTEX
  8
0
 10
534.427216
 20
63.925773
 42
0.043623
  0
VERTEX
  8
0
 10
532.281877
 20
63.649296
 42
0.078907
  0
VERTEX
  8
0
 10
530.928218
 20
63.119825
 42
0.125699
  0
VERTEX
  8
0
 10
530.049690
 20
62.250000
 42
-0.015907
  0
VERTEX
  8
0
 10
529.369778
 20
61.194131
 42
-0.246542
  0
VERTEX
  8
0
 10
529.000000
 20
61.000000
 42
-0.246542
  0
VERTEX
  8
0
 10
528.630222
 20
61.194131
 42
-0.015907
  0
VERTEX
  8
0
 10
527.950310
 20
62.250000
 42
0.105172
  0
VERTEX
  8
0
 10
527.205078
 20
63.050172
 42
0.075973
  0
VERTEX
  8
0
 10
526.109198
 20
63.592725
 42
0.054389
  0
VERTEX
  8
0
 10
524.569664
 20
63.903812
 42
0.022681
  0
VERTEX
  8
0
 10
522.450310
 20
64.000000
 42
0.000000
  0
VERTEX
  8
0
 10
518.000000
 20
64.000000
 42
0.000000
  0
SEQEND
  0
POLYLINE
  8
0
 66
1
 70
1
  0
VERTEX
  8
0
 10
14.000000
 20
62.099806
 42
0.000000
  0
VERTEX
  8
0
 10
9.500000
 20
61.500000
 42
0.000000
  0
VERTEX
  8
0
 10
9.212850
 20
52.278376
 42
0.003899
  0
VERTEX
  8
0
 10
9.071753
 20
46.231994
 42
0.059895
  0
VERTEX
  8
0
 10
9.288121
 20
44.161306
 42
0.183040
  0
VERTEX
  8
0
 10
9.991618
 20
43.101082
 42
0.094527
  0
VERTEX
  8
0
 10
11.455939
 20
42.421703
 42
-0.040722
  0
VERTEX
  8
0
 10
12.381780
 20
42.107366
 42
-0.072549
  0
VERTEX
  8
0
 10
13.064921
 20
41.685189
 42
-0.113550
  0
VERTEX
  8
0
 10
13.408518
 20
41.229698
 42
-0.248355
  0
VERTEX
  8
0
 10
13.380221
 20
40.806194
 42
-0.111650
  0
VERTEX
  8
0
 10
13.049966
 20
40.469641
 42
-0.160196
  0
VERTEX
  8
0
 10
12.648731
 20
40.365147
 42
-0.125085
  0
VERTEX
  8
0
 10
12.187842
 20
40.513697
 42
-0.056240
  0
VERTEX
  8
0
 10
11.687132
 20
40.912868
 42
0.190166
  0
VERTEX
  8
0
 10
10.376670
 20
41.481739
 42
0.347223
  0
VERTEX
  8
0
 10
9.490742
 20
40.829412
 42
0.061170
  0
VERTEX
  8
0
 10
9.080692
 20
38.031569
 42
0.005834
  0
VERTEX
  8
0
 10
9.000000
 20
31.116362
 42
0.000000
  0
VERTEX
  8
0
 10
9.000000
 20
20.232725
 42
0.000000
  0
VERTEX
  8
0
 10
13.002881
 20
16.616362
 42
0.000000
  0
VERTEX
  8
0
 10
17.005762
 20
13.000000
 42
0.000000
  0
VERTEX
  8
0
 10
27.375521
 20
13.000000
 42
0.000000
  0
VERTEX
  8
0
 10
37.745280
 20
13.000000
 42
0.000000
  0
VERTEX
  8
0
 10
41.872640
 20
17.477657
 42
0.000000
  0
VERTEX
  8
0
 10
46.000000
 20
21.955314
 42
0.000000
  0
VERTEX
  8
0
 10
46.000000
 20
31.977657
 42
0.007017
  0
VERTEX
  8
0
 10
45.946079
 20
35.819487
 42
0.011685
  0
VERTEX
  8
0
 10
45.779688
 20
39.051439
 42
0.005375
  0
VERTEX
  8
0
 10
45.551086
 20
41.716842
 42
0.392156
  0
VERTEX
  8
0
 10
45.250000
 20
41.984687
 42
0.074515
  0
VERTEX
  8
0
 10
44.865986
 20
41.919097
 42
0.020803
  0
VERTEX
  8
0
 10
44.293713
 20
41.704003
 42
0.020502
  0
VERTEX
  8
0
 10
43.658785
 20
41.403443
 42
0.020235
  0
VERTEX
  8
0
 10
43.047746
 20
41.050670
 42
-0.052214
  0
VERTEX
  8
0
 10
42.423662
 20
40.741689
 42
-0.052592
  0
VERTEX
  8
0
 10
41.750613
 20
40.569618
 42
-0.057720
  0
VERTEX
  8
0
 10
41.130932
 20
40.551086
 42
-0.117577
  0
VERTEX
  8
0
 10
40.671310
 20
40.703142
 42
-0.385314
  0
VERTEX
  8
0
 10
40.577397
 20
41.027708
 42
-0.102547
  0
VERTEX
  8
0
 10
40.936997
 20
41.492688
 42
-0.052812
  0
VERTEX
  8
0
 10
41.738110
 20
42.043824
 42
-0.024767
  0
VERTEX
  8
0
 10
42.873564
 20
42.588885
 42
0.000000
  0
VERTEX
  8
0
 10
46.000000
 20
43.903452
 42
0.000000
  0
VERTEX
  8
0
 10
46.000000
 20
52.335095
 42
0.016024
  0
VERTEX
  8
0
 10
45.802053
 20
58.509962
 42
0.176829
  0
VERTEX
  8
0
 10
44.822662
 20
60.738114
 42
0.185139
  0
VERTEX
  8
0
 10
42.658966
 20
61.758041
 42
0.017873
  0
VERTEX
  8
0
 10
36.750000
 20
61.986345
 42
0.000000
  0
VERTEX
  8
0
 10
32.000000
 20
62.000000
 42
0.000000
  0
VERTEX
  8
0
 10
32.000000
 20
52.566422
 42
0.000000
  0
VERTEX
  8
0
 10
32.000000
 20
43.132845
 42
0.000000
  0
VERTEX
  8
0
 10
34.750000
 20
42.707512
 42
-0.003228
  0
VERTEX
  8
0
 10
36.586444
 20
42.411322
 42
-0.256558
  0
VERTEX
  8
0
 10
36.808121
 20
42.236185
 42
-0.430138
  0
VERTEX
  8
0
 10
36.720969
 20
42.037062
 42
-0.005242
  0
VERTEX
  8
0
 10
35.250000
 20
41.524458
 42
0.091494
  0
VERTEX
  8
0
 10
34.038287
 20
40.850940
 42
0.142843
  0
VERTEX
  8
0
 10
33.371605
 20
39.870649
 42
0.068859
  0
VERTEX
  8
0
 10
33.068962
 20
38.168553
 42
0.009617
  0
VERTEX
  8
0
 10
33.000000
 20
34.583369
 42
-0.025250
  0
VERTEX
  8
0
 10
32.772507
 20
30.081346
 42
-0.119378
  0
VERTEX
  8
0
 10
31.920317
 20
27.661538
 42
-0.177719
  0
VERTEX
  8
0
 10
30.256163
 20
26.415273
 42
-0.072884
  0
VERTEX
  8
0
 10
27.422445
 20
26.000000
 42
-0.089830
  0
VERTEX
  8
0
 10
24.589329
 20
26.513138
 42
-0.162870
  0
VERTEX
  8
0
 10
22.779176
 20
27.980724
 42
-0.115388
  0
VERTEX
  8
0
 10
21.839075
 20
30.665072
 42
-0.034181
  0
VERTEX
  8
0
 10
21.669260
 20
35.042736
 42
0.011691
  0
VERTEX
  8
0
 10
21.689212
 20
38.270335
 42
0.067587
  0
VERTEX
  8
0
 10
21.431267
 20
39.952347
 42
0.124568
  0
VERTEX
  8
0
 10
20.808062
 20
41.003904
 42
0.084570
  0
VERTEX
  8
0
 10
19.669260
 20
41.815533
 42
0.000000
  0
VERTEX
  8
0
 10
17.500000
 20
42.864639
 42
0.000000
  0
VERTEX
  8
0
 10
19.664680
 20
42.932320
 42
0.133319
  0
VERTEX
  8
0
 10
20.857849
 20
43.296618
 42
0.163002
  0
VERTEX
  8
0
 10
21.593188
 20
44.194451
 42
0.060699
  0
VERTEX
  8
0
 10
22.057404
 20
46.076582
 42
0.006783
  0
VERTEX
  8
0
 10
22.529699
 20
50.473659
 42
0.010423
  0
VERTEX
  8
0
 10
22.751237
 20
53.520199
 42
0.011280
  0
VERTEX
  8
0
 10
22.838056
 20
56.494043
 42
0.010840
  0
VERTEX
  8
0
 10
22.799704
 20
59.041585
 42
0.052341
  0
VERTEX
  8
0
 10
22.595967
 20
60.473659
 42
0.077383
  0
VERTEX
  8
0
 10
21.943209
 20
62.016020
 42
0.210272
  0
VERTEX
  8
0
 10
20.986134
 20
62.672859
 42
0.075105
  0
VERTEX
  8
0
 10
19.187377
 20
62.739512
 42
0.004905
  0
SEQEND
  0
POLYLINE
  8
0
 66
1
 70
1
  0
VERTEX
  8
0
 10
76.305025
 20
62.195191
 42
0.058033
  0
VERTEX
  8
0
 10
73.431854
 20
61.647180
 42
0.205147
  0
VERTEX
  8
0
 10
72.036978
 20
60.450459
 42
0.046336
  0
VERTEX
  8
0
 10
70.985835
 20
57.694895
 42
0.000926
  0
VERTEX
  8
0
 10
66.988620
 20
43.250000
 42
-0.008369
  0
VERTEX
  8
0
 10
66.062584
 20
40.087471
 42
-0.013381
  0
VERTEX
  8
0
 10
65.154995
 20
37.423437
 42
-0.007164
  0
VERTEX
  8
0
 10
64.318204
 20
35.262403
 42
-0.305787
  0
VERTEX
  8
0
 10
63.929262
 20
35.000000
 42
-0.344926
  0
VERTEX
  8
0
 10
63.133151
 20
35.623362
 42
-0.003962
  0
VERTEX
  8
0
 10
61.468260
 20
42.599153
 42
-0.011677
  0
VERTEX
  8
0
 10
59.995145
 20
49.755618
 42
-0.018074
  0
VERTEX
  8
0
 10
59.092800
 20
56.000000
 42
0.000000
  0
VERTEX
  8
0
 10
58.500000
 20
61.500000
 42
0.000000
  0
VERTEX
  8
0
 10
52.619299
 20
61.803804
 42
0.005543
  0
VERTEX
  8
0
 10
48.822434
 20
61.957771
 42
0.098970
  0
VERTEX
  8
0
 10
47.622834
 20
61.754500
 42
0.311412
  0
VERTEX
  8
0
 10
47.201607
 20
61.141240
 42
0.068287
  0
VERTEX
  8
0
 10
47.387752
 20
59.803804
 42
-0.006954
  0
VERTEX
  8
0
 10
47.708073
 20
58.603295
 42
-0.002132
  0
VERTEX
  8
0
 10
48.158888
 20
56.781430
 42
-0.002133
  0
VERTEX
  8
0
 10
48.646186
 20
54.737526
 42
-0.002334
  0
VERTEX
  8
0
 10
49.101318
 20
52.750000
 42
0.017458
  0
VERTEX
  8
0
 10
49.742537
 20
50.293752
 42
0.074125
  0
VERTEX
  8
0
 10
50.385222
 20
48.922381
 42
0.127814
  0
VERTEX
  8
0
 10
51.202549
 20
48.190471
 42
0.106043
  0
VERTEX
  8
0
 10
52.332864
 20
47.883999
 42
-0.004947
  0
VERTEX
  8
0
 10
53.483093
 20
47.811010
 42
-0.220613
  0
VERTEX
  8
0
 10
53.687710
 20
47.697218
 42
-0.517080
  0
VERTEX
  8
0
 10
53.641598
 20
47.560567
 42
-0.008827
  0
VERTEX
  8
0
 10
52.750000
 20
47.310674
 42
0.163430
  0
VERTEX
  8
0
 10
51.594773
 20
46.554456
 42
0.188576
  0
VERTEX
  8
0
 10
51.214833
 20
45.301487
 42
0.035109
  0
VERTEX
  8
0
 10
51.615475
 20
42.624210
 42
0.001223
  0
VERTEX
  8
0
 10
53.924075
 20
32.357204
 42
0.003402
  0
VERTEX
  8
0
 10
56.857319
 20
19.853664
 42
0.065406
  0
VERTEX
  8
0
 10
58.290116
 20
16.135949
 42
0.198341
  0
VERTEX
  8
0
 10
60.272577
 20
14.530456
 42
0.072406
  0
VERTEX
  8
0
 10
63.916464
 20
14.000000
 42
0.000000
  0
VERTEX
  8
0
 10
68.882430
 20
14.000000
 42
0.000000
  0
VERTEX
  8
0
 10
74.943893
 20
33.250000
 42
-0.000198
  0
VERTEX
  8
0
 10
79.031465
 20
46.213353
 42
-0.000931
  0
VERTEX
  8
0
 10
81.398783
 20
53.662353
 42
-0.001236
  0
VERTEX
  8
0
 10
82.945624
 20
58.457539
 42
-0.010234
  0
VERTEX
  8
0
 10
83.697882
 20
60.618578
 42
0.324551
  0
VERTEX
  8
0
 10
83.452778
 20
61.496676
 42
0.115720
  0
VERTEX
  8
0
 10
82.205910
 20
62.084483
 42
0.053492
  0
VERTEX
  8
0
 10
79.837799
 20
62.329822
 42
0.017223
  0
SEQEND
  0
POLYLINE
  8
0
 66
1
 70
1
  0
VERTEX
  8
0
 10
74.729167
 20
51.395833
 42
-0.126455
  0
VERTEX
  8
0
 10
74.402231
 20
51.202593
 42
-0.060344
  0
VERTEX
  8
0
 10
73.916927
 20
51.123424
 42
-0.054150
  0
VERTEX
  8
0
 10
73.359369
 20
51.160852
 42
-0.051402
  0
VERTEX
  8
0
 10
72.812500
 20
51.316886
 42
-0.054073
  0
VERTEX
  8
0
 10
72.395823
 20
51.538436
 42
-0.470617
  0
VERTEX
  8
0
 10
72.378580
 20
51.720685
 42
-0.168741
  0
VERTEX
  8
0
 10
72.670344
 20
51.862007
 42
-0.018894
  0
VERTEX
  8
0
 10
73.416667
 20
51.921053
 42
-0.028489
  0
VERTEX
  8
0
 10
74.112848
 20
51.910055
 42
-0.077125
  0
VERTEX
  8
0
 10
74.592839
 20
51.799335
 42
-0.208169
  0
VERTEX
  8
0
 10
74.775380
 20
51.614691
 42
-0.296942
  0
SEQEND
  0
POLYLINE
  8
0
 66
1
 70
1
  0
VERTEX
  8
0
 10
192.000000
 20
49.393011
 42
0.003335
  0
VERTEX
  8
0
 10
192.049198
 20
42.017357
 42
0.023650
  0
VERTEX
  8
0
 10
192.266026
 20
38.445578
 42
0.060478
  0
VERTEX
  8
0
 10
192.680848
 20
36.663744
 42
0.419162
  0
VERTEX
  8
0
 10
193.415386
 20
36.329157
 42
-0.076079
  0
VERTEX
  8
0
 10
194.146515
 20
36.488467
 42
-0.027043
  0
VERTEX
  8
0
 10
195.219108
 20
36.497695
 42
-0.026100
  0
VERTEX
  8
0
 10
196.416249
 20
36.380412
 42
-0.027877
  0
VERTEX
  8
0
 10
197.568152
 20
36.140203
 42
-0.010736
  0
VERTEX
  8
0
 10
199.300233
 20
35.636888
 42
-0.510495
  0
VERTEX
  8
0
 10
199.399196
 20
35.340751
 42
-0.163033
  0
VERTEX
  8
0
 10
198.959585
 20
35.022864
 42
-0.002938
  0
VERTEX
  8
0
 10
196.152766
 20
34.163916
 42
0.000000
  0
VERTEX
  8
0
 10
192.000000
 20
32.919717
 42
0.000000
  0
VERTEX
  8
0
 10
192.000000
 20
23.459858
 42
0.000000
  0
VERTEX
  8
0
 10
192.000000
 20
14.000000
 42
0.000000
  0
VERTEX
  8
0
 10
197.500000
 20
14.000000
 42
0.000000
  0
VERTEX
  8
0
 10
203.000000
 20
14.000000
 42
0.000000
  0
VERTEX
  8
0
 10
203.000000
 20
23.000000
 42
0.000000
  0
VERTEX
  8
0
 10
203.000000
 20
32.000000
 42
0.000000
  0
VERTEX
  8
0
 10
207.465204
 20
32.000000
 42
0.031217
  0
VERTEX
  8
0
 10
209.880796
 20
32.150964
 42
0.061388
  0
VERTEX
  8
0
 10
211.744040
 20
32.621673
 42
0.059682
  0
VERTEX
  8
0
 10
213.470577
 20
33.541032
 42
0.028010
  0
VERTEX
  8
0
 10
215.465204
 20
35.103592
 42
0.059422
  0
VERTEX
  8
0
 10
217.794571
 20
37.698324
 42
0.092338
  0
VERTEX
  8
0
 10
219.041176
 20
40.425823
 42
0.253149
  0
VERTEX
  8
0
 10
218.652097
 20
41.941159
 42
0.306597
  0
VERTEX
  8
0
 10
217.252712
 20
42.266733
 42
-0.020475
  0
VERTEX
  8
0
 10
216.215101
 20
41.916578
 42
-0.500226
  0
VERTEX
  8
0
 10
216.005424
 20
42.073718
 42
-0.141913
  0
VERTEX
  8
0
 10
216.137952
 20
42.531248
 42
-0.004038
  0
VERTEX
  8
0
 10
217.252712
 20
44.262935
 42
0.055686
  0
VERTEX
  8
0
 10
217.945833
 20
45.631565
 42
0.029608
  0
VERTEX
  8
0
 10
218.504800
 20
47.449321
 42
0.028326
  0
VERTEX
  8
0
 10
218.875871
 20
49.460056
 42
0.031474
  0
VERTEX
  8
0
 10
219.000000
 20
51.430020
 42
0.030717
  0
VERTEX
  8
0
 10
218.850061
 20
53.868413
 42
0.061520
  0
VERTEX
  8
0
 10
218.381232
 20
55.737896
 42
0.060055
  0
VERTEX
  8
0
 10
217.462897
 20
57.465574
 42
0.028009
  0
VERTEX
  8
0
 10
215.896408
 20
59.465204
 42
0.000000
  0
VERTEX
  8
0
 10
212.792816
 20
63.000000
 42
0.000000
  0
VERTEX
  8
0
 10
202.396408
 20
63.000000
 42
0.000000
  0
VERTEX
  8
0
 10
192.000000
 20
63.000000
 42
0.000000
  0
SEQEND
  0
POLYLINE
  8
0
 66
1
 70
1
  0
VERTEX
  8
0
 10
208.000000
 20
48.000000
 42
-0.006583
  0
VERTEX
  8
0
 10
207.945542
 20
43.864163
 42
-0.063075
  0
VERTEX
  8
0
 10
207.678571
 20
42.125000
 42
-0.183695
  0
VERTEX
  8
0
 10
207.070611
 20
41.311233
 42
-0.142406
  0
VERTEX
  8
0
 10
206.000000
 20
41.000000
 42
-0.142406
  0
VERTEX
  8
0
 10
204.929389
 20
41.311233
 42
-0.183695
  0
VERTEX
  8
0
 10
204.321429
 20
42.125000
 42
-0.063075
  0
VERTEX
  8
0
 10
204.054458
 20
43.864163
 42
-0.006583
  0
VERTEX
  8
0
 10
204.000000
 20
48.000000
 42
-0.006583
  0
VERTEX
  8
0
 10
204.054458
 20
52.135837
 42
-0.063075
  0
VERTEX
  8
0
 10
204.321429
 20
53.875000
 42
-0.183695
  0
VERTEX
  8
0
 10
204.929389
 20
54.688767
 42
-0.142406
  0
VERTEX
  8
0
 10
206.000000
 20
55.000000
 42
-0.142406
  0
VERTEX
  8
0
 10
207.070611
 20
54.688767
 42
-0.183695
  0
VERTEX
  8
0
 10
207.678571
 20
53.875000
 42
-0.063075
  0
VERTEX
  8
0
 10
207.945542
 20
52.135837
 42
-0.006583
  0
SEQEND
  0
POLYLINE
  8
0
 66
1
 70
1
  0
VERTEX
  8
0
 10
225.053609
 20
60.207455
 42
0.039869
  0
VERTEX
  8
0
 10
223.245055
 20
58.084944
 42
0.099350
  0
VERTEX
  8
0
 10
222.402778
 20
56.238446
 42
0.052287
  0
VERTEX
  8
0
 10
222.067207
 20
53.577031
 42
0.005237
  0
VERTEX
  8
0
 10
222.000000
 20
47.160256
 42
0.003730
  0
VERTEX
  8
0
 10
222.049360
 20
40.544437
 42
0.057589
  0
VERTEX
  8
0
 10
222.343920
 20
38.290872
 42
0.164623
  0
VERTEX
  8
0
 10
223.126098
 20
37.074161
 42
0.080915
  0
VERTEX
  8
0
 10
224.750000
 20
36.162281
 42
0.000000
  0
VERTEX
  8
0
 10
227.500000
 20
35.157895
 42
0.000000
  0
VERTEX
  8
0
 10
224.750000
 20
35.078947
 42
0.000000
  0
VERTEX
  8
0
 10
222.000000
 20
35.000000
 42
0.000000
  0
VERTEX
  8
0
 10
222.004967
 20
27.250000
 42
0.010273
  0
VERTEX
  8
0
 10
222.097096
 20
22.902106
 42
0.044471
  0
VERTEX
  8
0
 10
222.433050
 20
20.344634
 42
0.067107
  0
VERTEX
  8
0
 10
223.138001
 20
18.434250
 42
0.046853
  0
VERTEX
  8
0
 10
224.400481
 20
16.512159
 42
0.046433
  0
VERTEX
  8
0
 10
226.052025
 20
14.800737
 42
0.100644
  0
VERTEX
  8
0
 10
227.640330
 20
13.912744
 42
0.058103
  0
VERTEX
  8
0
 10
229.961785
 20
13.458815
 42
0.007911
  0
VERTEX
  8
0
 10
234.908537
 20
13.155683
 42
0.009831
  0
VERTEX
  8
0
 10
239.092597
 20
13.048044
 42
0.031704
  0
VERTEX
  8
0
 10
241.869642
 20
13.207421
 42
0.047711
  0
VERTEX
  8
0
 10
243.895029
 20
13.651976
 42
0.067258
  0
VERTEX
  8
0
 10
245.560765
 20
14.447858
 42
0.086481
  0
VERTEX
  8
0
 10
248.900710
 20
17.575420
 42
0.074054
  0
VERTEX
  8
0
 10
251.204459
 20
21.813983
 42
0.084978
  0
VERTEX
  8
0
 10
251.960091
 20
25.955459
 42
0.201752
  0
VERTEX
  8
0
 10
250.800000
 20
28.800000
 42
-0.018208
  0
VERTEX
  8
0
 10
250.222304
 20
29.421376
 42
-0.180052
  0
VERTEX
  8
0
 10
250.100000
 20
29.750000
 42
-0.354955
  0
VERTEX
  8
0
 10
250.257401
 20
29.943785
 42
-0.051663
  0
VERTEX
  8
0
 10
250.800000
 20
30.000000
 42
0.408916
  0
VERTEX
  8
0
 10
252.032888
 20
31.210748
 42
0.006999
  0
VERTEX
  8
0
 10
252.075656
 20
41.587161
 42
0.012334
  0
VERTEX
  8
0
 10
251.729598
 20
51.601430
 42
0.104892
  0
VERTEX
  8
0
 10
250.544051
 20
55.914815
 42
0.106476
  0
VERTEX
  8
0
 10
248.407647
 20
58.506495
 42
0.064383
  0
VERTEX
  8
0
 10
244.983127
 20
60.562294
 42
0.052507
  0
VERTEX
  8
0
 10
240.412698
 20
62.011957
 42
0.032711
  0
VERTEX
  8
0
 10
234.838704
 20
62.779428
 42
0.010132
  0
VERTEX
  8
0
 10
230.641171
 20
62.994382
 42
0.072108
  0
VERTEX
  8
0
 10
228.623059
 20
62.765227
 42
0.102456
  0
VERTEX
  8
0
 10
227.064891
 20
61.990844
 42
0.030001
  0
SEQEND
  0
POLYLINE
  8
0
 66
1
 70
1
  0
VERTEX
  8
0
 10
238.802338
 20
42.061929
 42
0.014707
  0
VERTEX
  8
0
 10
239.035225
 20
39.023016
 42
0.036126
  0
VERTEX
  8
0
 10
239.431867
 20
36.819768
 42
0.050626
  0
VERTEX
  8
0
 10
240.006736
 20
35.252229
 42
0.107224
  0
VERTEX
  8
0
 10
240.802338
 20
34.240337
 42
-0.002644
  0
VERTEX
  8
0
 10
241.904323
 20
33.319377
 42
-0.219376
  0
VERTEX
  8
0
 10
241.995639
 20
33.124117
 42
-0.501149
  0
VERTEX
  8
0
 10
241.885282
 20
33.040710
 42
-0.005144
  0
VERTEX
  8
0
 10
240.807186
 20
33.365036
 42
0.118112
  0
VERTEX
  8
0
 10
239.961314
 20
33.422113
 42
0.212822
  0
VERTEX
  8
0
 10
239.393404
 20
33.044207
 42
0.102215
  0
VERTEX
  8
0
 10
239.034741
 20
32.092892
 42
0.018433
  0
VERTEX
  8
0
 10
238.807186
 20
30.204988
 42
-0.028728
  0
VERTEX
  8
0
 10
238.571471
 20
28.538770
 42
-0.065982
  0
VERTEX
  8
0
 10
238.162034
 20
27.342432
 42
-0.095019
  0
VERTEX
  8
0
 10
237.576667
 20
26.573999
 42
-0.136631
  0
VERTEX
  8
0
 10
236.814002
 20
26.197318
 42
-0.337998
  0
VERTEX
  8
0
 10
235.582458
 20
26.814727
 42
-0.081057
  0
VERTEX
  8
0
 10
234.879124
 20
29.150825
 42
-0.035742
  0
VERTEX
  8
0
 10
234.617848
 20
33.557123
 42
-0.007438
  0
VERTEX
  8
0
 10
234.827978
 20
41.308307
 42
-0.006350
  0
VERTEX
  8
0
 10
235.065076
 20
45.640154
 42
-0.048427
  0
VERTEX
  8
0
 10
235.398259
 20
47.651546
 42
-0.147560
  0
VERTEX
  8
0
 10
235.960251
 20
48.560120
 42
-0.232033
  0
VERTEX
  8
0
 10
236.827978
 20
48.798264
 42
-0.178052
  0
VERTEX
  8
0
 10
237.662221
 20
48.297562
 42
-0.098497
  0
VERTEX
  8
0
 10
238.219531
 20
47.230895
 42
-0.048817
  0
VERTEX
  8
0
 10
238.576725
 20
45.348755
 42
-0.010731
  0
SEQEND
  0
POLYLINE
  8
0
 66
1
 70
1
  0
VERTEX
  8
0
 10
290.000000
 20
62.099806
 42
0.000000
  0
VERTEX
  8
0
 10
285.500000
 20
61.500000
 42
0.000000
  0
VERTEX
  8
0
 10
285.212850
 20
52.278376
 42
0.003899
  0
VERTEX
  8
0
 10
285.071753
 20
46.231994
 42
0.059895
  0
VERTEX
  8
0
 10
285.288121
 20
44.161306
 42
0.183040
  0
VERTEX
  8
0
 10
285.991618
 20
43.101082
 42
0.094527
  0
VERTEX
  8
0
 10
287.455939
 20
42.421703
 42
-0.037030
  0
VERTEX
  8
0
 10
288.385872
 20
42.113604
 42
-0.066382
  0
VERTEX
  8
0
 10
289.080248
 20
41.709990
 42
-0.104354
  0
VERTEX
  8
0
 10
289.443705
 20
41.281744
 42
-0.268529
  0
VERTEX
  8
0
 10
289.432401
 20
40.890622
 42
-0.183562
  0
VERTEX
  8
0
 10
289.072621
 20
40.614758
 42
-0.087194
  0
VERTEX
  8
0
 10
288.483931
 20
40.545499
 42
-0.066043
  0
VERTEX
  8
0
 10
287.742797
 20
40.687062
 42
-0.042718
  0
VERTEX
  8
0
 10
286.939312
 20
41.032479
 42
0.206605
  0
VERTEX
  8
0
 10
285.893162
 20
41.120480
 42
0.269174
  0
VERTEX
  8
0
 10
285.270804
 20
40.412831
 42
0.046203
  0
VERTEX
  8
0
 10
285.037343
 20
38.157199
 42
0.002699
  0
VERTEX
  8
0
 10
285.000000
 20
31.238132
 42
0.000000
  0
VERTEX
  8
0
 10
285.000000
 20
20.405896
 42
0.000000
  0
VERTEX
  8
0
 10
288.792163
 20
16.702948
 42
0.000000
  0
VERTEX
  8
0
 10
292.584325
 20
13.000000
 42
0.000000
  0
VERTEX
  8
0
 10
303.089215
 20
13.000000
 42
0.000000
  0
VERTEX
  8
0
 10
313.594104
 20
13.000000
 42
0.000000
  0
VERTEX
  8
0
 10
317.297052
 20
16.792163
 42
0.000000
  0
VERTEX
  8
0
 10
321.000000
 20
20.584325
 42
0.000000
  0
VERTEX
  8
0
 10
321.000000
 20
31.327346
 42
0.002733
  0
VERTEX
  8
0
 10
320.962540
 20
38.179629
 42
0.046468
  0
VERTEX
  8
0
 10
320.729078
 20
40.420651
 42
0.269417
  0
VERTEX
  8
0
 10
320.108439
 20
41.123999
 42
0.206056
  0
VERTEX
  8
0
 10
319.065741
 20
41.035184
 42
-0.015572
  0
VERTEX
  8
0
 10
317.509240
 20
40.263521
 42
-0.095870
  0
VERTEX
  8
0
 10
316.644065
 20
40.053669
 42
-0.261570
  0
VERTEX
  8
0
 10
316.186260
 20
40.283273
 42
-0.149665
  0
VERTEX
  8
0
 10
316.000000
 20
40.891592
 42
-0.208396
  0
VERTEX
  8
0
 10
316.168069
 20
41.277325
 42
-0.050787
  0
VERTEX
  8
0
 10
316.734375
 20
41.705595
 42
-0.043524
  0
VERTEX
  8
0
 10
317.542749
 20
42.105107
 42
-0.031538
  0
VERTEX
  8
0
 10
318.500000
 20
42.410644
 42
0.097045
  0
VERTEX
  8
0
 10
319.934733
 20
43.085018
 42
0.171820
  0
VERTEX
  8
0
 10
320.661892
 20
44.153386
 42
0.059891
  0
VERTEX
  8
0
 10
320.948780
 20
46.224414
 42
0.004503
  0
VERTEX
  8
0
 10
321.000000
 20
51.912063
 42
0.012305
  0
VERTEX
  8
0
 10
320.838758
 20
58.463148
 42
0.157846
  0
VERTEX
  8
0
 10
319.980475
 20
60.727397
 42
0.203956
  0
VERTEX
  8
0
 10
318.043998
 20
61.767695
 42
0.022649
  0
VERTEX
  8
0
 10
312.918213
 20
62.000000
 42
0.000000
  0
VERTEX
  8
0
 10
308.000000
 20
62.000000
 42
0.000000
  0
VERTEX
  8
0
 10
308.000000
 20
52.500000
 42
0.000000
  0
VERTEX
  8
0
 10
308.000000
 20
43.000000
 42
0.000000
  0
VERTEX
  8
0
 10
310.750000
 20
42.893619
 42
0.000000
  0
VERTEX
  8
0
 10
313.500000
 20
42.787239
 42
0.000000
  0
VERTEX
  8
0
 10
310.704176
 20
41.684462
 42
0.043253
  0
VERTEX
  8
0
 10
309.071566
 20
40.871202
 42
0.174741
  0
VERTEX
  8
0
 10
308.386198
 20
40.017052
 42
0.103513
  0
VERTEX
  8
0
 10
308.217309
 20
38.661139
 42
0.010482
  0
VERTEX
  8
0
 10
308.554250
 20
35.412092
 42
-0.035361
  0
VERTEX
  8
0
 10
308.800683
 20
30.819247
 42
-0.129729
  0
VERTEX
  8
0
 10
308.016307
 20
28.040360
 42
-0.179370
  0
VERTEX
  8
0
 10
306.147053
 20
26.520377
 42
-0.082119
  0
VERTEX
  8
0
 10
303.000000
 20
26.000000
 42
-0.084347
  0
VERTEX
  8
0
 10
299.861970
 20
26.533160
 42
-0.176452
  0
VERTEX
  8
0
 10
297.971464
 20
28.080473
 42
-0.125791
  0
VERTEX
  8
0
 10
297.139799
 20
30.915773
 42
-0.034488
  0
VERTEX
  8
0
 10
297.298863
 20
35.606757
 42
0.010303
  0
VERTEX
  8
0
 10
297.568791
 20
38.881539
 42
0.097639
  0
VERTEX
  8
0
 10
297.383043
 20
40.269625
 42
0.174383
  0
VERTEX
  8
0
 10
296.705532
 20
41.119578
 42
0.050423
  0
VERTEX
  8
0
 10
295.171836
 20
41.863774
 42
0.000000
  0
VERTEX
  8
0
 10
292.500000
 20
42.842105
 42
0.000000
  0
VERTEX
  8
0
 10
295.105662
 20
42.921053
 42
0.083917
  0
VERTEX
  8
0
 10
296.618752
 20
43.224199
 42
0.202715
  0
VERTEX
  8
0
 10
297.425651
 20
43.999117
 42
0.076652
  0
VERTEX
  8
0
 10
297.857705
 20
45.673010
 42
0.006027
  0
VERTEX
  8
0
 10
298.261097
 20
50.269269
 42
0.008929
  0
VERTEX
  8
0
 10
298.433209
 20
53.252571
 42
0.009249
  0
VERTEX
  8
0
 10
298.496033
 20
56.205343
 42
0.009010
  0
VERTEX
  8
0
 10
298.457074
 20
58.761038
 42
0.038925
  0
VERTEX
  8
0
 10
298.288858
 20
60.269269
 42
0.064827
  0
VERTEX
  8
0
 10
297.730530
 20
61.963401
 42
0.230353
  0
VERTEX
  8
0
 10
296.859143
 20
62.653991
 42
0.082969
  0
VERTEX
  8
0
 10
295.180828
 20
62.740998
 42
0.004687
  0
SEQEND
  0
POLYLINE
  8
0
 66
1
 70
1
  0
VERTEX
  8
0
 10
325.218265
 20
51.293437
 42
0.003073
  0
VERTEX
  8
0
 10
325.448874
 20
43.661515
 42
0.046113
  0
VERTEX
  8
0
 10
325.789617
 20
41.024710
 42
0.151826
  0
VERTEX
  8
0
 10
326.550419
 20
39.702158
 42
0.119750
  0
VERTEX
  8
0
 10
328.000000
 20
38.893117
 42
-0.003863
  0
VERTEX
  8
0
 10
329.572693
 20
38.443574
 42
-0.559987
  0
VERTEX
  8
0
 10
329.613910
 20
38.290909
 42
-0.196252
  0
VERTEX
  8
0
 10
329.352469
 20
38.172284
 42
-0.001929
  0
VERTEX
  8
0
 10
327.250000
 20
38.099680
 42
0.000000
  0
VERTEX
  8
0
 10
324.000000
 20
38.000000
 42
0.000000
  0
VERTEX
  8
0
 10
324.000000
 20
26.000000
 42
0.000000
  0
VERTEX
  8
0
 10
324.000000
 20
14.000000
 42
0.000000
  0
VERTEX
  8
0
 10
329.500000
 20
14.000000
 42
0.000000
  0
VERTEX
  8
0
 10
335.000000
 20
14.000000
 42
0.000000
  0
VERTEX
  8
0
 10
335.000000
 20
24.000000
 42
0.000000
  0
VERTEX
  8
0
 10
335.000000
 20
34.000000
 42
0.000000
  0
VERTEX
  8
0
 10
338.000000
 20
34.000000
 42
0.000000
  0
VERTEX
  8
0
 10
341.000000
 20
34.000000
 42
0.000000
  0
VERTEX
  8
0
 10
341.000000
 20
24.000000
 42
0.000000
  0
VERTEX
  8
0
 10
341.000000
 20
14.000000
 42
0.000000
  0
VERTEX
  8
0
 10
346.500000
 20
14.000000
 42
0.000000
  0
VERTEX
  8
0
 10
352.000000
 20
14.000000
 42
0.000000
  0
VERTEX
  8
0
 10
351.984687
 20
23.250000
 42
0.007357
  0
VERTEX
  8
0
 10
351.925356
 20
26.874259
 42
0.010297
  0
VERTEX
  8
0
 10
351.758058
 20
30.108796
 42
0.006960
  0
VERTEX
  8
0
 10
351.526223
 20
32.791952
 42
0.121767
  0
VERTEX
  8
0
 10
351.234687
 20
33.609730
 42
0.077958
  0
VERTEX
  8
0
 10
350.689133
 20
34.206739
 42
0.009005
  0
VERTEX
  8
0
 10
349.247064
 20
35.318542
 42
0.010665
  0
VERTEX
  8
0
 10
347.468379
 20
36.581538
 42
0.008515
  0
VERTEX
  8
0
 10
345.500000
 20
37.868616
 42
0.000000
  0
VERTEX
  8
0
 10
340.500000
 20
41.017771
 42
0.000000
  0
VERTEX
  8
0
 10
344.199195
 20
40.807920
 42
0.078189
  0
VERTEX
  8
0
 10
347.273118
 20
41.114454
 42
0.103487
  0
VERTEX
  8
0
 10
349.784885
 20
42.364207
 42
0.114259
  0
VERTEX
  8
0
 10
351.417033
 20
44.401920
 42
0.112421
  0
VERTEX
  8
0
 10
352.000000
 20
46.961946
 42
0.057487
  0
VERTEX
  8
0
 10
351.848369
 20
48.276404
 42
0.102850
  0
VERTEX
  8
0
 10
351.392321
 20
49.258645
 42
0.096415
  0
VERTEX
  8
0
 10
350.558510
 20
50.018314
 42
0.045975
  0
VERTEX
  8
0
 10
349.250000
 20
50.658134
 42
0.000000
  0
VERTEX
  8
0
 10
346.500000
 20
51.702351
 42
0.000000
  0
VERTEX
  8
0
 10
349.250000
 20
52.826424
 42
0.026439
  0
VERTEX
  8
0
 10
350.303029
 20
53.323323
 42
0.035693
  0
VERTEX
  8
0
 10
351.192187
 20
53.887141
 42
0.038654
  0
VERTEX
  8
0
 10
351.826386
 20
54.436395
 42
0.197453
  0
VERTEX
  8
0
 10
352.000000
 20
54.858887
 42
0.170119
  0
VERTEX
  8
0
 10
351.816530
 20
55.382520
 42
0.012564
  0
VERTEX
  8
0
 10
350.824154
 20
56.562743
 42
0.016333
  0
VERTEX
  8
0
 10
349.530520
 20
57.932181
 42
0.011620
  0
VERTEX
  8
0
 10
347.997119
 20
59.383638
 42
0.000000
  0
VERTEX
  8
0
 10
343.994238
 20
63.000000
 42
0.000000
  0
VERTEX
  8
0
 10
334.465384
 20
63.000000
 42
0.000000
  0
VERTEX
  8
0
 10
324.936529
 20
63.000000
 42
0.000000
  0
SEQEND
  0
POLYLINE
  8
0
 66
1
 70
1
  0
VERTEX
  8
0
 10
340.000000
 20
49.000000
 42
-0.011557
  0
VERTEX
  8
0
 10
339.935058
 20
46.190675
 42
-0.083766
  0
VERTEX
  8
0
 10
339.650000
 20
44.875000
 42
-0.189791
  0
VERTEX
  8
0
 10
339.046013
 20
44.233935
 42
-0.110458
  0
VERTEX
  8
0
 10
338.000000
 20
44.000000
 42
-0.110458
  0
VERTEX
  8
0
 10
336.953987
 20
44.233935
 42
-0.189791
  0
VERTEX
  8
0
 10
336.350000
 20
44.875000
 42
-0.083766
  0
VERTEX
  8
0
 10
336.064942
 20
46.190675
 42
-0.011557
  0
VERTEX
  8
0
 10
336.000000
 20
49.000000
 42
-0.011557
  0
VERTEX
  8
0
 10
336.064942
 20
51.809325
 42
-0.083766
  0
VERTEX
  8
0
 10
336.350000
 20
53.125000
 42
-0.189791
  0
VERTEX
  8
0
 10
336.953987
 20
53.766065
 42
-0.110458
  0
VERTEX
  8
0
 10
338.000000
 20
54.000000
 42
-0.110458
  0
VERTEX
  8
0
 10
339.046013
 20
53.766065
 42
-0.189791
  0
VERTEX
  8
0
 10
339.650000
 20
53.125000
 42
-0.083766
  0
VERTEX
  8
0
 10
339.935058
 20
51.809325
 42
-0.011557
  0
SEQEND
  0
POLYLINE
  8
0
 66
1
 70
1
  0
VERTEX
  8
0
 10
461.364551
 20
61.830620
 42
0.110021
  0
VERTEX
  8
0
 10
459.345357
 20
60.230571
 42
0.075448
  0
VERTEX
  8
0
 10
457.859760
 20
57.700422
 42
0.037278
  0
VERTEX
  8
0
 10
456.494411
 20
53.375482
 42
0.006465
  0
VERTEX
  8
0
 10
454.636101
 20
45.000000
 42
0.002151
  0
VERTEX
  8
0
 10
452.050266
 20
32.315705
 42
0.031821
  0
VERTEX
  8
0
 10
451.447394
 20
27.815862
 42
0.139620
  0
VERTEX
  8
0
 10
451.875859
 20
25.784552
 42
0.270698
  0
VERTEX
  8
0
 10
453.238182
 20
24.936614
 42
0.000000
  0
VERTEX
  8
0
 10
455.500000
 20
24.873227
 42
0.000000
  0
VERTEX
  8
0
 10
453.250000
 20
23.968838
 42
0.169303
  0
VERTEX
  8
0
 10
451.506100
 20
22.446672
 42
0.141175
  0
VERTEX
  8
0
 10
450.925008
 20
20.043655
 42
0.117509
  0
VERTEX
  8
0
 10
451.693809
 20
17.341382
 42
0.098607
  0
VERTEX
  8
0
 10
453.634859
 20
15.072580
 42
0.066325
  0
VERTEX
  8
0
 10
455.486922
 20
13.977297
 42
0.060756
  0
VERTEX
  8
0
 10
457.616880
 20
13.364258
 42
0.033438
  0
VERTEX
  8
0
 10
460.772993
 20
13.072979
 42
0.006295
  0
VERTEX
  8
0
 10
466.569759
 20
13.000000
 42
0.012679
  0
VERTEX
  8
0
 10
474.608828
 20
13.203891
 42
0.065218
  0
VERTEX
  8
0
 10
478.983483
 20
14.004311
 42
0.119726
  0
VERTEX
  8
0
 10
481.667140
 20
15.647962
 42
0.097094
  0
VERTEX
  8
0
 10
483.548369
 20
18.461520
 42
0.060954
  0
VERTEX
  8
0
 10
484.585805
 20
22.152243
 42
0.033433
  0
VERTEX
  8
0
 10
484.987019
 20
26.837525
 42
0.027687
  0
VERTEX
  8
0
 10
484.831689
 20
31.059242
 42
0.387478
  0
VERTEX
  8
0
 10
483.800000
 20
32.000000
 42
-0.051663
  0
VERTEX
  8
0
 10
483.257401
 20
32.056215
 42
-0.354955
  0
VERTEX
  8
0
 10
483.100000
 20
32.250000
 42
-0.180052
  0
VERTEX
  8
0
 10
483.222304
 20
32.578624
 42
-0.018208
  0
VERTEX
  8
0
 10
483.800000
 20
33.200000
 42
0.106108
  0
VERTEX
  8
0
 10
484.262714
 20
33.915624
 42
0.031761
  0
VERTEX
  8
0
 10
484.647500
 20
35.163750
 42
0.030274
  0
VERTEX
  8
0
 10
484.911592
 20
36.657267
 42
0.028630
  0
VERTEX
  8
0
 10
485.000000
 20
38.200000
 42
0.000000
  0
VERTEX
  8
0
 10
485.000000
 20
42.000000
 42
0.000000
  0
VERTEX
  8
0
 10
476.606989
 20
42.000000
 42
0.012967
  0
VERTEX
  8
0
 10
470.531472
 20
41.842412
 42
0.147423
  0
VERTEX
  8
0
 10
468.296338
 20
41.040170
 42
0.206936
  0
VERTEX
  8
0
 10
467.255756
 20
39.245073
 42
0.029316
  0
VERTEX
  8
0
 10
467.000000
 20
34.886828
 42
0.060597
  0
VERTEX
  8
0
 10
467.349603
 20
32.012779
 42
0.191709
  0
VERTEX
  8
0
 10
468.456807
 20
30.464868
 42
0.181403
  0
VERTEX
  8
0
 10
470.374294
 20
30.051841
 42
0.053596
  0
VERTEX
  8
0
 10
473.331521
 20
30.819034
 42
-0.024824
  0
VERTEX
  8
0
 10
475.588925
 20
31.545345
 42
-0.171574
  0
VERTEX
  8
0
 10
476.730843
 20
31.455875
 42
-0.489397
  0
VERTEX
  8
0
 10
476.880332
 20
30.851572
 42
-0.060481
  0
VERTEX
  8
0
 10
475.761359
 20
29.739668
 42
0.056341
  0
VERTEX
  8
0
 10
475.126356
 20
29.119005
 42
0.036457
  0
VERTEX
  8
0
 10
474.535896
 20
28.276652
 42
0.036434
  0
VERTEX
  8
0
 10
474.073485
 20
27.356456
 42
0.055840
  0
VERTEX
  8
0
 10
473.826043
 20
26.500000
 42
-0.102219
  0
VERTEX
  8
0
 10
473.443837
 20
25.524500
 42
-0.123866
  0
VERTEX
  8
0
 10
472.724983
 20
24.858613
 42
-0.080740
  0
VERTEX
  8
0
 10
471.521900
 20
24.433637
 42
-0.024152
  0
VERTEX
  8
0
 10
469.587006
 20
24.180413
 42
-0.031348
  0
VERTEX
  8
0
 10
466.327640
 20
24.117945
 42
-0.040046
  0
VERTEX
  8
0
 10
463.347685
 20
24.488035
 42
-0.078886
  0
VERTEX
  8
0
 10
461.672497
 20
25.120599
 42
-0.561538
  0
VERTEX
  8
0
 10
461.652261
 20
25.818708
 42
0.139357
  0
VERTEX
  8
0
 10
462.094310
 20
26.325360
 42
0.026222
  0
VERTEX
  8
0
 10
462.564195
 20
27.474870
 42
0.026223
  0
VERTEX
  8
0
 10
462.984326
 20
28.918636
 42
0.021389
  0
VERTEX
  8
0
 10
463.285128
 20
30.500000
 42
-0.008211
  0
VERTEX
  8
0
 10
464.147269
 20
35.787785
 42
-0.007277
  0
VERTEX
  8
0
 10
465.214916
 20
41.262473
 42
-0.005307
  0
VERTEX
  8
0
 10
466.288964
 20
46.116380
 42
-0.057706
  0
VERTEX
  8
0
 10
466.963046
 20
48.000000
 42
-0.090091
  0
VERTEX
  8
0
 10
467.407358
 20
48.598448
 42
-0.049400
  0
VERTEX
  8
0
 10
468.134428
 20
49.155466
 42
-0.047073
  0
VERTEX
  8
0
 10
469.011202
 20
49.590888
 42
-0.054961
  0
VERTEX
  8
0
 10
469.909882
 20
49.827119
 42
-0.078453
  0
VERTEX
  8
0
 10
471.034626
 20
49.816605
 42
-0.130463
  0
VERTEX
  8
0
 10
471.892710
 20
49.427842
 42
-0.098891
  0
VERTEX
  8
0
 10
472.599054
 20
48.569920
 42
-0.032695
  0
VERTEX
  8
0
 10
473.276992
 20
47.077119
 42
0.041338
  0
VERTEX
  8
0
 10
474.121331
 20
45.300042
 42
0.148922
  0
VERTEX
  8
0
 10
475.029776
 20
44.455527
 42
0.100210
  0
VERTEX
  8
0
 10
476.462944
 20
44.084201
 42
0.013443
  0
VERTEX
  8
0
 10
479.594238
 20
44.000000
 42
0.011336
  0
VERTEX
  8
0
 10
482.797661
 20
44.072635
 42
0.109215
  0
VERTEX
  8
0
 10
484.105266
 20
44.424562
 42
0.181468
  0
VERTEX
  8
0
 10
484.833611
 20
45.236319
 42
0.043745
  0
VERTEX
  8
0
 10
485.350000
 20
47.000000
 42
0.052900
  0
VERTEX
  8
0
 10
485.641293
 20
50.167873
 42
0.058482
  0
VERTEX
  8
0
 10
485.240046
 20
53.217093
 42
0.066763
  0
VERTEX
  8
0
 10
484.251105
 20
55.685926
 42
0.142216
  0
VERTEX
  8
0
 10
482.793438
 20
57.110549
 42
0.044415
  0
VERTEX
  8
0
 10
480.314366
 20
58.166364
 42
0.003085
  0
VERTEX
  8
0
 10
473.078132
 20
60.465870
 42
0.001621
  0
VERTEX
  8
0
 10
465.456081
 20
62.809235
 42
0.103478
  0
VERTEX
  8
0
 10
464.073775
 20
62.932320
 42
0.059593
  0
VERTEX
  8
0
 10
463.735959
 20
62.850917
 42
0.007680
  0
VERTEX
  8
0
 10
463.041258
 20
62.580777
 42
0.008879
  0
VERTEX
  8
0
 10
462.224227
 20
62.231501
 42
0.007301
  0
SEQEND
  0
POLYLINE
  8
0
 66
1
 70
1
  0
VERTEX
  8
0
 10
119.000000
 20
55.000000
 42
0.011208
  0
VERTEX
  8
0
 10
119.067598
 20
51.984677
 42
0.028549
  0
VERTEX
  8
0
 10
119.290087
 20
49.809097
 42
0.036027
  0
VERTEX
  8
0
 10
119.630575
 20
48.361559
 42
0.327995
  0
VERTEX
  8
0
 10
120.122445
 20
48.000000
 42
-0.092501
  0
VERTEX
  8
0
 10
120.552644
 20
47.919725
 42
-0.282344
  0
VERTEX
  8
0
 10
120.725272
 20
47.693341
 42
-0.161368
  0
VERTEX
  8
0
 10
120.641380
 20
47.316163
 42
-0.033453
  0
VERTEX
  8
0
 10
120.249277
 20
46.750000
 42
0.138843
  0
VERTEX
  8
0
 10
119.828692
 20
45.745927
 42
0.004573
  0
VERTEX
  8
0
 10
119.340139
 20
41.386667
 42
0.008412
  0
VERTEX
  8
0
 10
118.893356
 20
36.182310
 42
0.005718
  0
VERTEX
  8
0
 10
118.552435
 20
30.247164
 42
0.005229
  0
VERTEX
  8
0
 10
118.129353
 20
18.328737
 42
0.142878
  0
VERTEX
  8
0
 10
118.925337
 20
15.322171
 42
0.273805
  0
VERTEX
  8
0
 10
121.110650
 20
14.146312
 42
0.021868
  0
VERTEX
  8
0
 10
127.913877
 20
14.723231
 42
-0.012790
  0
VERTEX
  8
0
 10
130.842463
 20
15.025207
 42
-0.019122
  0
VERTEX
  8
0
 10
133.412888
 20
15.125330
 42
-0.019466
  0
VERTEX
  8
0
 10
135.469732
 20
15.046648
 42
-0.108686
  0
VERTEX
  8
0
 10
136.519429
 20
14.729189
 42
0.104919
  0
VERTEX
  8
0
 10
137.333124
 20
14.476474
 42
0.337841
  0
VERTEX
  8
0
 10
137.783803
 20
14.758741
 42
0.099041
  0
VERTEX
  8
0
 10
137.942225
 20
15.726811
 42
0.009136
  0
VERTEX
  8
0
 10
137.811611
 20
18.165831
 42
0.016416
  0
VERTEX
  8
0
 10
137.519361
 20
20.949539
 42
0.161192
  0
VERTEX
  8
0
 10
137.005494
 20
21.994409
 42
0.164623
  0
VERTEX
  8
0
 10
135.974367
 20
22.515307
 42
0.017310
  0
VERTEX
  8
0
 10
133.250000
 20
22.807498
 42
0.000000
  0
VERTEX
  8
0
 10
129.000000
 20
23.114996
 42
0.000000
  0
VERTEX
  8
0
 10
129.000000
 20
29.497133
 42
0.000000
  0
VERTEX
  8
0
 10
129.000000
 20
35.879269
 42
0.000000
  0
VERTEX
  8
0
 10
132.750000
 20
36.189635
 42
0.020532
  0
VERTEX
  8
0
 10
135.021538
 20
36.471916
 42
0.158479
  0
VERTEX
  8
0
 10
135.959974
 20
36.959330
 42
0.171123
  0
VERTEX
  8
0
 10
136.394786
 20
37.886652
 42
0.024877
  0
VERTEX
  8
0
 10
136.500000
 20
40.000000
 42
0.024877
  0
VERTEX
  8
0
 10
136.394786
 20
42.113348
 42
0.171123
  0
VERTEX
  8
0
 10
135.959974
 20
43.040670
 42
0.158479
  0
VERTEX
  8
0
 10
135.021538
 20
43.528084
 42
0.020532
  0
VERTEX
  8
0
 10
132.750000
 20
43.810365
 42
-0.021677
  0
VERTEX
  8
0
 10
130.387374
 20
44.109456
 42
-0.183857
  0
VERTEX
  8
0
 10
129.481643
 20
44.643701
 42
-0.155457
  0
VERTEX
  8
0
 10
129.080636
 20
45.690686
 42
-0.014334
  0
VERTEX
  8
0
 10
129.000000
 20
48.502867
 42
0.000000
  0
VERTEX
  8
0
 10
129.000000
 20
52.885004
 42
0.000000
  0
VERTEX
  8
0
 10
133.250000
 20
53.192502
 42
0.017229
  0
VERTEX
  8
0
 10
135.965644
 20
53.483314
 42
0.162473
  0
VERTEX
  8
0
 10
137.000000
 20
54.000000
 42
0.162473
  0
VERTEX
  8
0
 10
137.516686
 20
55.034356
 42
0.017229
  0
VERTEX
  8
0
 10
137.807498
 20
57.750000
 42
0.000000
  0
VERTEX
  8
0
 10
138.114996
 20
62.000000
 42
0.000000
  0
VERTEX
  8
0
 10
128.557498
 20
62.000000
 42
0.000000
  0
VERTEX
  8
0
 10
119.000000
 20
62.000000
 42
0.000000
  0
SEQEND
  0
POLYLINE
  8
0
 66
1
 70
1
  0
VERTEX
  8
0
 10
355.000000
 20
55.000000
 42
0.011208
  0
VERTEX
  8
0
 10
355.067598
 20
51.984677
 42
0.028549
  0
VERTEX
  8
0
 10
355.290087
 20
49.809097
 42
0.036027
  0
VERTEX
  8
0
 10
355.630575
 20
48.361559
 42
0.327995
  0
VERTEX
  8
0
 10
356.122445
 20
48.000000
 42
-0.092501
  0
VERTEX
  8
0
 10
356.552644
 20
47.919725
 42
-0.282344
  0
VERTEX
  8
0
 10
356.725272
 20
47.693341
 42
-0.161368
  0
VERTEX
  8
0
 10
356.641380
 20
47.316163
 42
-0.033453
  0
VERTEX
  8
0
 10
356.249277
 20
46.750000
 42
0.138843
  0
VERTEX
  8
0
 10
355.828692
 20
45.745927
 42
0.004573
  0
VERTEX
  8
0
 10
355.340139
 20
41.386667
 42
0.008412
  0
VERTEX
  8
0
 10
354.893356
 20
36.182310
 42
0.005718
  0
VERTEX
  8
0
 10
354.552435
 20
30.247164
 42
0.005229
  0
VERTEX
  8
0
 10
354.129353
 20
18.328737
 42
0.142878
  0
VERTEX
  8
0
 10
354.925337
 20
15.322171
 42
0.273805
  0
VERTEX
  8
0
 10
357.110650
 20
14.146312
 42
0.021868
  0
VERTEX
  8
0
 10
363.913877
 20
14.723231
 42
-0.012790
  0
VERTEX
  8
0
 10
366.842463
 20
15.025207
 42
-0.019122
  0
VERTEX
  8
0
 10
369.412888
 20
15.125330
 42
-0.019466
  0
VERTEX
  8
0
 10
371.469732
 20
15.046648
 42
-0.108686
  0
VERTEX
  8
0
 10
372.519429
 20
14.729189
 42
0.104919
  0
VERTEX
  8
0
 10
373.333124
 20
14.476474
 42
0.337841
  0
VERTEX
  8
0
 10
373.783803
 20
14.758741
 42
0.099041
  0
VERTEX
  8
0
 10
373.942225
 20
15.726811
 42
0.009136
  0
VERTEX
  8
0
 10
373.811611
 20
18.165831
 42
0.016416
  0
VERTEX
  8
0
 10
373.519361
 20
20.949539
 42
0.161192
  0
VERTEX
  8
0
 10
373.005494
 20
21.994409
 42
0.164623
  0
VERTEX
  8
0
 10
371.974367
 20
22.515307
 42
0.017310
  0
VERTEX
  8
0
 10
369.250000
 20
22.807498
 42
0.000000
  0
VERTEX
  8
0
 10
365.000000
 20
23.114996
 42
0.000000
  0
VERTEX
  8
0
 10
365.000000
 20
29.497133
 42
0.000000
  0
VERTEX
  8
0
 10
365.000000
 20
35.879269
 42
0.000000
  0
VERTEX
  8
0
 10
368.750000
 20
36.189635
 42
0.020532
  0
VERTEX
  8
0
 10
371.021538
 20
36.471916
 42
0.158479
  0
VERTEX
  8
0
 10
371.959974
 20
36.959330
 42
0.171123
  0
VERTEX
  8
0
 10
372.394786
 20
37.886652
 42
0.024877
  0
VERTEX
  8
0
 10
372.500000
 20
40.000000
 42
0.024877
  0
VERTEX
  8
0
 10
372.394786
 20
42.113348
 42
0.171123
  0
VERTEX
  8
0
 10
371.959974
 20
43.040670
 42
0.158479
  0
VERTEX
  8
0
 10
371.021538
 20
43.528084
 42
0.020532
  0
VERTEX
  8
0
 10
368.750000
 20
43.810365
 42
-0.021677
  0
VERTEX
  8
0
 10
366.387374
 20
44.109456
 42
-0.183857
  0
VERTEX
  8
0
 10
365.481643
 20
44.643701
 42
-0.155457
  0
VERTEX
  8
0
 10
365.080636
 20
45.690686
 42
-0.014334
  0
VERTEX
  8
0
 10
365.000000
 20
48.502867
 42
0.000000
  0
VERTEX
  8
0
 10
365.000000
 20
52.885004
 42
0.000000
  0
VERTEX
  8
0
 10
369.250000
 20
53.192502
 42
0.017229
  0
VERTEX
  8
0
 10
371.965644
 20
53.483314
 42
0.162473
  0
VERTEX
  8
0
 10
373.000000
 20
54.000000
 42
0.162473
  0
VERTEX
  8
0
 10
373.516686
 20
55.034356
 42
0.017229
  0
VERTEX
  8
0
 10
373.807498
 20
57.750000
 42
0.000000
  0
VERTEX
  8
0
 10
374.114996
 20
62.000000
 42
0.000000
  0
VERTEX
  8
0
 10
364.557498
 20
62.000000
 42
0.000000
  0
VERTEX
  8
0
 10
355.000000
 20
62.000000
 42
0.000000
  0
SEQEND
  0
POLYLINE
  8
0
 66
1
 70
1
  0
VERTEX
  8
0
 10
410.750000
 20
61.283746
 42
0.065357
  0
VERTEX
  8
0
 10
409.132400
 20
60.817067
 42
0.202306
  0
VERTEX
  8
0
 10
408.365258
 20
60.010208
 42
0.084178
  0
VERTEX
  8
0
 10
408.055384
 20
58.424513
 42
0.006257
  0
VERTEX
  8
0
 10
408.000000
 20
53.998677
 42
0.012715
  0
VERTEX
  8
0
 10
408.071664
 20
51.180973
 42
0.013040
  0
VERTEX
  8
0
 10
408.286479
 20
48.394317
 42
0.012878
  0
VERTEX
  8
0
 10
408.597773
 20
45.990244
 42
0.052247
  0
VERTEX
  8
0
 10
408.975249
 20
44.565100
 42
-0.022770
  0
VERTEX
  8
0
 10
409.341883
 20
43.450500
 42
-0.068170
  0
VERTEX
  8
0
 10
409.450498
 20
42.657550
 42
-0.141354
  0
VERTEX
  8
0
 10
409.314925
 20
42.187578
 42
-0.257767
  0
VERTEX
  8
0
 10
408.975249
 20
42.000000
 42
0.386739
  0
VERTEX
  8
0
 10
408.552072
 20
41.615115
 42
0.006328
  0
VERTEX
  8
0
 10
408.267376
 20
38.153038
 42
0.011794
  0
VERTEX
  8
0
 10
408.063802
 20
33.711700
 42
0.005554
  0
VERTEX
  8
0
 10
408.000000
 20
27.968265
 42
0.000000
  0
VERTEX
  8
0
 10
408.000000
 20
13.936529
 42
0.000000
  0
VERTEX
  8
0
 10
419.750000
 20
14.218265
 42
0.000000
  0
VERTEX
  8
0
 10
431.500000
 20
14.500000
 42
0.000000
  0
VERTEX
  8
0
 10
431.500000
 20
20.500000
 42
0.000000
  0
VERTEX
  8
0
 10
431.500000
 20
26.500000
 42
0.000000
  0
VERTEX
  8
0
 10
426.250000
 20
26.802260
 42
0.000000
  0
VERTEX
  8
0
 10
421.000000
 20
27.104519
 42
0.000000
  0
VERTEX
  8
0
 10
421.000000
 20
33.223519
 42
0.016118
  0
VERTEX
  8
0
 10
420.906492
 20
36.123486
 42
0.035223
  0
VERTEX
  8
0
 10
420.607668
 20
38.325467
 42
0.046817
  0
VERTEX
  8
0
 10
420.097342
 20
39.981866
 42
0.085994
  0
VERTEX
  8
0
 10
419.345012
 20
41.171259
 42
-0.010057
  0
VERTEX
  8
0
 10
418.410863
 20
42.246168
 42
-0.160991
  0
VERTEX
  8
0
 10
418.236214
 20
42.688437
 42
-0.384264
  0
VERTEX
  8
0
 10
418.434557
 20
42.935280
 42
-0.040066
  0
VERTEX
  8
0
 10
419.240932
 20
43.000000
 42
0.247239
  0
VERTEX
  8
0
 10
420.038637
 20
43.420128
 42
0.081810
  0
VERTEX
  8
0
 10
420.618061
 20
44.657229
 42
0.038655
  0
VERTEX
  8
0
 10
421.074844
 20
46.939934
 42
0.007984
  0
VERTEX
  8
0
 10
421.501770
 20
51.019994
 42
0.025598
  0
VERTEX
  8
0
 10
421.759291
 20
57.957061
 42
0.201288
  0
VERTEX
  8
0
 10
420.497734
 20
60.848986
 42
0.204441
  0
VERTEX
  8
0
 10
417.563673
 20
61.949545
 42
0.026475
  0
SEQEND
  0
POLYLINE
  8
0
 66
1
 70
1
  0
VERTEX
  8
0
 10
438.763519
 20
61.272338
 42
0.000000
  0
VERTEX
  8
0
 10
435.027038
 20
60.880881
 42
0.000000
  0
VERTEX
  8
0
 10
435.055419
 20
44.412744
 42
-0.003603
  0
VERTEX
  8
0
 10
435.020415
 20
38.027252
 42
-0.005478
  0
VERTEX
  8
0
 10
434.889256
 20
32.480835
 42
-0.002226
  0
VERTEX
  8
0
 10
434.704235
 20
27.745397
 42
-0.128213
  0
VERTEX
  8
0
 10
434.449906
 20
26.918946
 42
0.126675
  0
VERTEX
  8
0
 10
434.234888
 20
26.227687
 42
0.013320
  0
VERTEX
  8
0
 10
434.195771
 20
24.521184
 42
0.015810
  0
VERTEX
  8
0
 10
434.268877
 20
22.453211
 42
0.012051
  0
VERTEX
  8
0
 10
434.474914
 20
20.196642
 42
0.000000
  0
VERTEX
  8
0
 10
435.133817
 20
14.500000
 42
0.000000
  0
VERTEX
  8
0
 10
441.566908
 20
14.835327
 42
0.000000
  0
VERTEX
  8
0
 10
448.000000
 20
15.170654
 42
0.000000
  0
VERTEX
  8
0
 10
448.000000
 20
29.015776
 42
0.002375
  0
VERTEX
  8
0
 10
447.957306
 20
38.003702
 42
0.036715
  0
VERTEX
  8
0
 10
447.701547
 20
41.081884
 42
0.137384
  0
VERTEX
  8
0
 10
447.032014
 20
42.544264
 42
0.171170
  0
VERTEX
  8
0
 10
445.750000
 20
43.294267
 42
0.000000
  0
VERTEX
  8
0
 10
443.500000
 20
43.727636
 42
0.000000
  0
VERTEX
  8
0
 10
445.750000
 20
43.863818
 42
0.132593
  0
VERTEX
  8
0
 10
447.010408
 20
44.287247
 42
0.187548
  0
VERTEX
  8
0
 10
447.683717
 20
45.245988
 42
0.056225
  0
VERTEX
  8
0
 10
447.952219
 20
47.313627
 42
0.004201
  0
VERTEX
  8
0
 10
448.000000
 20
53.000000
 42
0.000000
  0
VERTEX
  8
0
 10
448.000000
 20
62.000000
 42
0.000000
  0
VERTEX
  8
0
 10
445.250000
 20
61.831897
 42
0.004298
  0
VERTEX
  8
0
 10
443.932531
 20
61.739988
 42
0.001952
  0
VERTEX
  8
0
 10
442.210221
 20
61.598184
 42
0.001932
  0
VERTEX
  8
0
 10
440.395092
 20
61.434531
 42
0.002651
  0
SEQEND
  0
POLYLINE
  8
0
 66
1
 70
1
  0
VERTEX
  8
0
 10
488.641848
 20
58.250000
 42
0.036911
  0
VERTEX
  8
0
 10
488.140290
 20
52.693446
 42
0.004098
  0
VERTEX
  8
0
 10
488.037858
 20
39.945726
 42
0.004802
  0
VERTEX
  8
0
 10
488.161987
 20
27.235924
 42
0.025048
  0
VERTEX
  8
0
 10
488.647983
 20
20.250000
 42
0.000000
  0
VERTEX
  8
0
 10
489.278582
 20
15.000000
 42
0.000000
  0
VERTEX
  8
0
 10
493.639291
 20
15.000000
 42
0.000000
  0
VERTEX
  8
0
 10
498.000000
 20
15.000000
 42
0.000000
  0
VERTEX
  8
0
 10
498.000000
 20
24.171259
 42
-0.008077
  0
VERTEX
  8
0
 10
498.075453
 20
28.841973
 42
-0.029132
  0
VERTEX
  8
0
 10
498.344551
 20
31.805557
 42
-0.047001
  0
VERTEX
  8
0
 10
498.838858
 20
33.801830
 42
-0.100056
  0
VERTEX
  8
0
 10
499.647801
 20
35.163318
 42
-0.022528
  0
VERTEX
  8
0
 10
500.700152
 20
36.225793
 42
-0.255673
  0
VERTEX
  8
0
 10
501.254199
 20
36.364032
 42
-0.198031
  0
VERTEX
  8
0
 10
501.759533
 20
35.982175
 42
-0.013527
  0
VERTEX
  8
0
 10
502.647801
 20
34.377752
 42
-0.038893
  0
VERTEX
  8
0
 10
503.166885
 20
33.152847
 42
-0.022598
  0
VERTEX
  8
0
 10
503.605345
 20
31.615896
 42
-0.022493
  0
VERTEX
  8
0
 10
503.907335
 20
30.026218
 42
-0.035010
  0
VERTEX
  8
0
 10
504.008692
 20
28.635693
 42
0.013355
  0
VERTEX
  8
0
 10
504.054798
 20
27.072190
 42
0.004975
  0
VERTEX
  8
0
 10
504.200069
 20
24.878922
 42
0.004925
  0
VERTEX
  8
0
 10
504.405893
 20
22.489836
 42
0.005938
  0
VERTEX
  8
0
 10
504.647983
 20
20.250000
 42
0.000000
  0
VERTEX
  8
0
 10
505.278582
 20
15.000000
 42
0.000000
  0
VERTEX
  8
0
 10
509.639291
 20
15.000000
 42
0.000000
  0
VERTEX
  8
0
 10
514.000000
 20
15.000000
 42
0.000000
  0
VERTEX
  8
0
 10
514.000000
 20
38.500000
 42
0.000000
  0
VERTEX
  8
0
 10
514.000000
 20
62.000000
 42
0.000000
  0
VERTEX
  8
0
 10
509.000000
 20
62.000000
 42
0.000000
  0
VERTEX
  8
0
 10
504.000000
 20
62.000000
 42
0.000000
  0
VERTEX
  8
0
 10
504.000000
 20
52.000000
 42
0.000000
  0
VERTEX
  8
0
 10
504.000000
 20
42.000000
 42
0.000000
  0
VERTEX
  8
0
 10
501.000000
 20
42.000000
 42
0.000000
  0
VERTEX
  8
0
 10
498.000000
 20
42.000000
 42
0.000000
  0
VERTEX
  8
0
 10
498.000000
 20
52.000000
 42
0.000000
  0
VERTEX
  8
0
 10
498.000000
 20
62.000000
 42
0.000000
  0
VERTEX
  8
0
 10
493.630842
 20
62.000000
 42
0.016006
  0
VERTEX
  8
0
 10
490.874904
 20
61.911755
 42
0.146163
  0
VERTEX
  8
0
 10
489.761633
 20
61.499961
 42
0.168995
  0
VERTEX
  8
0
 10
489.136699
 20
60.569448
 42
0.023198
  0
SEQEND
  0
POLYLINE
  8
0
 66
1
 70
1
  0
VERTEX
  8
0
 10
147.095245
 20
54.765090
 42
0.000000
  0
VERTEX
  8
0
 10
142.904224
 20
49.613017
 42
0.000000
  0
VERTEX
  8
0
 10
149.817799
 20
42.699442
 42
0.005864
  0
VERTEX
  8
0
 10
153.908510
 20
38.703573
 42
0.048575
  0
VERTEX
  8
0
 10
155.949737
 20
37.103378
 42
0.125062
  0
VERTEX
  8
0
 10
157.417817
 20
36.618558
 42
0.141312
  0
VERTEX
  8
0
 10
158.865687
 20
36.928118
 42
-0.029037
  0
VERTEX
  8
0
 10
159.684733
 20
37.307064
 42
-0.058163
  0
VERTEX
  8
0
 10
160.373045
 20
37.489496
 42
-0.103430
  0
VERTEX
  8
0
 10
160.828332
 20
37.460667
 42
-0.337346
  0
VERTEX
  8
0
 10
161.000000
 20
37.235184
 42
-0.162992
  0
VERTEX
  8
0
 10
160.611926
 20
36.076339
 42
-0.083827
  0
VERTEX
  8
0
 10
159.486992
 20
35.013016
 42
-0.073416
  0
VERTEX
  8
0
 10
157.899133
 20
34.258841
 42
-0.074349
  0
VERTEX
  8
0
 10
156.168034
 20
34.000000
 42
0.058423
  0
VERTEX
  8
0
 10
155.014715
 20
33.864777
 42
0.025357
  0
VERTEX
  8
0
 10
153.530204
 20
33.431252
 42
0.024672
  0
VERTEX
  8
0
 10
151.981135
 20
32.805036
 42
0.030027
  0
VERTEX
  8
0
 10
150.603288
 20
32.063836
 42
0.049725
  0
VERTEX
  8
0
 10
148.220212
 20
30.241124
 42
0.026698
  0
VERTEX
  8
0
 10
145.653669
 20
27.568237
 42
0.022650
  0
VERTEX
  8
0
 10
143.512607
 20
24.845830
 42
0.156545
  0
VERTEX
  8
0
 10
143.000000
 20
23.248700
 42
0.170670
  0
VERTEX
  8
0
 10
143.177223
 20
22.744626
 42
0.008259
  0
VERTEX
  8
0
 10
144.329524
 20
21.356070
 42
0.012669
  0
VERTEX
  8
0
 10
145.791930
 20
19.736789
 42
0.008725
  0
VERTEX
  8
0
 10
147.526039
 20
17.974445
 42
0.000000
  0
VERTEX
  8
0
 10
152.052078
 20
13.532473
 42
0.000000
  0
VERTEX
  8
0
 10
154.276039
 20
16.143343
 42
-0.016350
  0
VERTEX
  8
0
 10
155.447224
 20
17.430545
 42
-0.005592
  0
VERTEX
  8
0
 10
157.225925
 20
19.220942
 42
-0.005551
  0
VERTEX
  8
0
 10
159.234528
 20
21.154600
 42
-0.006383
  0
VERTEX
  8
0
 10
161.195194
 20
22.953948
 42
0.000000
  0
VERTEX
  8
0
 10
165.890388
 20
27.153683
 42
0.000000
  0
VERTEX
  8
0
 10
172.537461
 20
20.107435
 42
0.000000
  0
VERTEX
  8
0
 10
179.184535
 20
13.061188
 42
0.000000
  0
VERTEX
  8
0
 10
184.024059
 20
18.280594
 42
0.000000
  0
VERTEX
  8
0
 10
188.863583
 20
23.500000
 42
0.000000
  0
VERTEX
  8
0
 10
182.208611
 20
30.250000
 42
0.000000
  0
VERTEX
  8
0
 10
175.553639
 20
37.000000
 42
0.000000
  0
VERTEX
  8
0
 10
182.348249
 20
43.847077
 42
0.000000
  0
VERTEX
  8
0
 10
189.142859
 20
50.694155
 42
0.000000
  0
VERTEX
  8
0
 10
184.182649
 20
54.847077
 42
0.008264
  0
VERTEX
  8
0
 10
182.217251
 20
56.438098
 42
0.011775
  0
VERTEX
  8
0
 10
180.416483
 20
57.780079
 42
0.007860
  0
VERTEX
  8
0
 10
178.881381
 20
58.832937
 42
0.147417
  0
VERTEX
  8
0
 10
178.327059
 20
59.000000
 42
0.205077
  0
VERTEX
  8
0
 10
176.686949
 20
58.297767
 42
0.007941
  0
VERTEX
  8
0
 10
172.115178
 20
53.349034
 42
0.014279
  0
VERTEX
  8
0
 10
167.842286
 20
48.290332
 42
0.051598
  0
VERTEX
  8
0
 10
165.570588
 20
44.744023
 42
-0.015271
  0
VERTEX
  8
0
 10
164.808574
 20
43.339702
 42
-0.027129
  0
VERTEX
  8
0
 10
164.085313
 20
42.240437
 42
-0.028156
  0
VERTEX
  8
0
 10
163.471964
 20
41.501038
 42
-0.424979
  0
VERTEX
  8
0
 10
163.171137
 20
41.495529
 42
-0.234603
  0
VERTEX
  8
0
 10
163.054309
 20
41.842797
 42
-0.033862
  0
VERTEX
  8
0
 10
163.210353
 20
42.596912
 42
-0.032489
  0
VERTEX
  8
0
 10
163.535717
 20
43.526462
 42
-0.022441
  0
VERTEX
  8
0
 10
164.017276
 20
44.532280
 42
0.077712
  0
VERTEX
  8
0
 10
164.590817
 20
46.173023
 42
0.163776
  0
VERTEX
  8
0
 10
164.400172
 20
47.492457
 42
0.070330
  0
VERTEX
  8
0
 10
163.275098
 20
49.107014
 42
0.006645
  0
VERTEX
  8
0
 10
159.935449
 20
52.604516
 42
0.009127
  0
VERTEX
  8
0
 10
154.573932
 20
57.876074
 42
0.149085
  0
VERTEX
  8
0
 10
152.343765
 20
58.988502
 42
0.240941
  0
VERTEX
  8
0
 10
150.362036
 20
58.362069
 42
0.027223
  0
SEQEND
  0
ENDSEC
  0
EOF
